<?xml version="1.0" encoding="UTF-8"?>
<svg width="249px" height="145px" viewBox="0 0 249 145" version="1.1" xmlns="http://www.w3.org/2000/svg" xmlns:xlink="http://www.w3.org/1999/xlink">
    <!-- Generator: Sketch 49 (51002) - http://www.bohemiancoding.com/sketch -->
    <title>DE</title>
    <desc>Created with Sketch.</desc>
    <defs></defs>
    <g id="Page-1" stroke="none" stroke-width="1" fill="none" fill-rule="evenodd">
        <g id="DE" fill="#FFBCA5">
            <path d="M21.0438401,144.282051 L96.8424418,1.82276721 L98.1151901,0.51712882 L98,0.300943309 L98.1629649,0.468119492 L98.3259298,0.300943309 L98.2107957,0.517186352 L98.4730577,0.786225642 L99.9470636,0.300943309 L199.279055,0.300943309 L201.292836,0.941968951 L98.6248777,0.941968951 L99.483488,1.82276721 L136.822831,72 L141,72 L141,73 L137.354903,73 L175.28209,144.282051 L246.482647,144.282051 L249,144.923077 L1.42108547e-14,144.923077 L3.63952741,144.282051 L21.0438401,144.282051 Z M21.0803195,144.282051 L175.24561,144.282051 L174.080761,143.0871 L98.3415577,0.941968951 L98,0.941968951 L98.2905831,0.846301191 L98.1630263,0.606906236 L92.4239608,11.3859316 L22.3713739,142.957634 L21.0803195,144.282051 Z M144,73 L144,72 L149,72 L149,73 L144,73 Z M152,73 L152,72 L157,72 L157,73 L152,73 Z M160,73 L160,72 L165,72 L165,73 L160,73 Z M168,73 L168,72 L173,72 L173,73 L168,73 Z M176,73 L176,72 L181,72 L181,73 L176,73 Z M184,73 L184,72 L189,72 L189,73 L184,73 Z M192,73 L192,72 L197,72 L197,73 L192,73 Z M200,73 L200,72 L205,72 L205,73 L200,73 Z M208,73 L208,72 L213,72 L213,73 L208,73 Z M216,73 L216,72 L221,72 L221,73 L216,73 Z M224,73 L224,72 L229,72 L229,73 L224,73 Z M232,73 L232,72 L237,72 L237,73 L232,73 Z M240,73 L240,72 L242.963803,72 L245,73 L240,73 Z" id="Combined-Shape"></path>
        </g>
    </g>
</svg>