<?xml version="1.0" encoding="UTF-8"?>
<svg width="249px" height="146px" viewBox="0 0 249 146" version="1.1" xmlns="http://www.w3.org/2000/svg" xmlns:xlink="http://www.w3.org/1999/xlink">
    <!-- Generator: Sketch 49 (51002) - http://www.bohemiancoding.com/sketch -->
    <title>DE</title>
    <desc>Created with Sketch.</desc>
    <defs></defs>
    <g id="Page-1" stroke="none" stroke-width="1" fill="none" fill-rule="evenodd">
        <g id="DE" fill="#FFBCA5">
            <path d="M20.936064,144.282051 L96.706529,1.92998829 L98.0283508,0.914916194 L97.8415222,0.564694616 L98.1629649,0.811541414 L98.4844076,0.564694616 L98.2977346,0.915035669 L98.4795433,1.05465279 L99.9470636,0.300943309 L199.279055,0.300943309 L201.292836,1.30094331 L98.8002616,1.30094331 L99.6194008,1.92998829 L136.915926,72 L141,72 L141,73 L137.448202,73 L175.389866,144.282051 L246.482647,144.282051 L249,145.282051 L1.42108547e-14,145.282051 L3.63952741,144.282051 L20.936064,144.282051 Z M21.0728157,144.282051 L175.253114,144.282051 L173.992141,143.313707 L98.2342801,1.30094331 L98.0921106,1.30094331 L92.5789564,11.6478314 L22.4850382,143.197557 L21.0728157,144.282051 Z M98.1268146,1.2358121 L98.1838961,1.20649541 L98.1631536,1.16761239 L98.1268146,1.2358121 Z M144,73 L144,72 L149,72 L149,73 L144,73 Z M152,73 L152,72 L157,72 L157,73 L152,73 Z M160,73 L160,72 L165,72 L165,73 L160,73 Z M168,73 L168,72 L173,72 L173,73 L168,73 Z M176,73 L176,72 L181,72 L181,73 L176,73 Z M184,73 L184,72 L189,72 L189,73 L184,73 Z M192,73 L192,72 L197,72 L197,73 L192,73 Z M200,73 L200,72 L205,72 L205,73 L200,73 Z M208,73 L208,72 L213,72 L213,73 L208,73 Z M216,73 L216,72 L221,72 L221,73 L216,73 Z M224,73 L224,72 L229,72 L229,73 L224,73 Z M232,73 L232,72 L237,72 L237,73 L232,73 Z M240,73 L240,72 L242.963803,72 L245,73 L240,73 Z" id="Combined-Shape"></path>
        </g>
    </g>
</svg>