<?xml version="1.0" encoding="UTF-8"?>
<svg width="115px" height="121px" viewBox="0 0 115 121" version="1.1" xmlns="http://www.w3.org/2000/svg" xmlns:xlink="http://www.w3.org/1999/xlink">
    <!-- Generator: Sketch 49 (51002) - http://www.bohemiancoding.com/sketch -->
    <title>Page 1</title>
    <desc>Created with Sketch.</desc>
    <defs>
        <polygon id="path-1" points="0.23880478 0.00409030684 34.1520384 0.00409030684 34.1520384 57.5123457 0.23880478 57.5123457"></polygon>
        <polygon id="path-3" points="0.21890878 0.0152149063 22.1451191 0.0152149063 22.1451191 29.7167239 0.21890878 29.7167239"></polygon>
    </defs>
    <g id="Page-1" stroke="none" stroke-width="1" fill="none" fill-rule="evenodd">
        <g id="Portfolio" transform="translate(-962.000000, -1033.000000)">
            <g id="Page-1" transform="translate(962.000000, 1033.000000)">
                <g id="Group-3" transform="translate(4.481481, 63.487654)">
                    <mask id="mask-2" fill="white">
                        <use xlink:href="#path-1"></use>
                    </mask>
                    <g id="Clip-2"></g>
                    <path d="M24.4431854,9.40594871 C23.399976,11.4677384 22.3592604,13.5303656 21.3157739,15.5921553 C19.4144452,19.3486049 1.95308746,55.3086178 0.941188212,57.299215 C0.898794843,57.3826916 0.884109558,57.5208888 0.758591935,57.5119548 C0.656072023,57.504696 0.646928355,57.3818541 0.624484807,57.2994942 C0.117703943,55.4507235 0.0597940462,53.3210916 0.75692945,51.518945 C2.30553429,47.5151366 13.9010905,20.4745626 14.9077252,17.8901364 C15.030195,17.576052 15.1825894,17.431992 15.5427945,17.4481848 C16.0648149,17.4716364 16.5887747,17.4219413 17.1113492,17.4389716 C17.4302693,17.4495807 17.5992886,17.3323225 17.7375519,17.0576034 C19.9281531,12.7009036 22.1314999,8.35006671 24.3234865,3.99364612 C24.8355319,2.97657099 25.3630938,1.97373436 26.2738586,1.23221597 C27.7817325,0.00491367614 29.4516988,-0.387622042 31.3106341,0.445748598 C32.3283521,0.902217943 33.0290895,1.70264462 33.5004041,2.67672507 C34.2327287,4.19019316 34.3233342,5.76061522 33.8946901,7.36063101 C33.4690939,8.95031692 32.6181787,10.2560705 31.2197516,11.1913441 C29.5387022,12.3150683 27.4497897,12.2343835 25.8939807,10.9819545 C25.3218088,10.5210182 24.8945501,9.94477796 24.5534636,9.25379226 C24.4944454,9.33447705 24.4625811,9.36714183 24.4431854,9.40594871" id="Fill-1" fill="#E4844A" mask="url(#mask-2)"></path>
                </g>
                <path d="M114.277778,35.0089169 C114.277504,35.271787 114.230616,35.5312635 114.106952,35.772467 C113.952852,36.0731883 113.648217,36.3658173 113.364421,36.5362783 C112.809717,36.8902523 111.80615,37.2395275 110.492189,37.3241054 C109.966001,37.352298 108.701396,37.3549085 108.598297,37.3196677 C108.395665,37.2499693 108.406358,37.2515355 108.38168,37.0299102 C108.316969,36.4446522 108.305727,33.1787458 108.302711,33.1022603 C108.29805,32.9827027 108.360841,32.9372812 108.481215,32.9331046 C108.926788,32.917703 109.370167,32.8714985 109.817385,32.8657555 C110.295314,32.8589684 110.76392,32.8743699 111.252268,32.911699 C111.965733,32.9897508 112.629569,33.1672599 113.236645,33.5481214 C113.58049,33.7640038 113.893077,33.997376 114.089129,34.3550047 C114.203196,34.5630558 114.253648,34.7478741 114.277778,35.0089169" id="Fill-4" fill="#FDE0A0"></path>
                <path d="M33.9049325,72.2831248 C33.6499637,72.1456414 33.4214701,71.9665399 33.2493806,71.727164 C33.0344125,71.4280875 32.9023236,70.9946849 32.8784383,70.6439445 C32.8113866,69.9482042 32.9725408,68.841449 33.5452135,67.5871647 C33.7800381,67.0874601 34.4076759,65.9210044 34.4934329,65.8443696 C34.6617814,65.6939703 34.6548748,65.703155 34.8822172,65.79615 C35.4825164,66.0418405 38.656965,67.7367029 38.7323621,67.7740157 C38.8509255,67.8319941 38.8632998,67.9135082 38.8074714,68.0265947 C38.6002732,68.4453592 38.4241548,68.8776137 38.2071723,69.2929339 C37.9755132,69.7363823 37.7271632,70.1603131 37.4474457,70.5905585 C37.0163584,71.2073679 36.5130395,71.7263029 35.8410843,72.0862279 C35.4600699,72.2903003 35.0781922,72.4564858 34.6335794,72.4504583 C34.3748695,72.4467271 34.1702613,72.3967853 33.9049325,72.2831248" id="Fill-6" fill="#FDE0A0"></path>
                <path d="M111.290123,32.9443078 C110.547589,34.5696635 109.790414,36.1235225 109.136,37.7211207 C108.933239,38.2159892 108.696225,38.3037478 108.244572,38.3023459 C104.132456,38.2902896 79.4324106,38.2947757 79.3232956,38.2950561 C78.3882214,38.2961776 78.5373913,38.2681397 78.5373913,39.090771 C78.5351814,55.4749843 78.5360101,103.00339 78.5351814,110.383239 C78.5351814,111.409426 78.603689,111.284937 77.6777309,111.285779 C74.0285937,111.289143 66.3482789,111.271199 66.1587779,111.286339 C65.8408251,111.311854 65.7093346,111.173627 65.7306051,110.854556 C65.7435884,110.661655 65.7620965,33.7941358 65.7748036,33.4077739 C65.7875107,33.0365524 65.9640283,32.8515024 66.3408204,32.8733719 C66.5311501,32.8843067 95.8883339,32.8742131 110.375767,32.8775776 C110.669411,32.8775776 110.970237,32.8198196 111.290123,32.9443078" id="Fill-8" fill="#314660"></path>
                <g id="Group-12" transform="translate(53.777778, 0.000000)">
                    <mask id="mask-4" fill="white">
                        <use xlink:href="#path-3"></use>
                    </mask>
                    <g id="Clip-11"></g>
                    <path d="M22.1385185,29.3664289 C22.1556042,29.6438935 22.0012731,29.728267 21.734625,29.7136054 C21.5968194,29.7061363 0.834675926,29.705583 0.697430556,29.7144353 C0.38456713,29.7351829 0.254043981,29.6159534 0.254324074,29.3122085 C0.254604167,28.4347234 0.203627315,17.0218839 0.223513889,12.1929492 C0.229956019,10.6200046 0.351236111,9.05093278 0.630208333,7.49403292 C0.878090278,6.11168953 1.51530093,4.89781664 2.38246759,3.78048925 C4.30194213,1.30709877 6.95778009,0.195580704 10.1721227,0.0398353909 C11.7535255,-0.0367924097 13.2954352,0.0531138546 14.8090556,0.476641518 C17.3055208,1.17542067 19.1698171,2.61447417 20.4694468,4.71911065 C21.3217685,6.09924097 21.8189329,7.59251486 22.0802593,9.15273434 C22.1774514,9.73311385 22.1362778,10.3356241 22.1373981,10.9281756 C22.1421597,13.7429332 22.1273148,29.1863397 22.1385185,29.3664289" id="Fill-10" fill="#91214E" mask="url(#mask-4)"></path>
                </g>
                <path d="M66.4753086,23.8492023 C66.9972311,23.6791494 67.5261664,23.5457274 67.9936039,23.2243382 C68.7973915,22.6719338 69.2680657,21.8927922 69.6885707,21.0473406 C70.4297814,19.5553674 70.5757039,16.5818486 70.5573625,14.9382716 C70.8608057,15.5273069 70.9873079,17.3738244 70.950625,18.0730197 C70.9449607,18.6690069 70.7855518,19.5620518 70.632077,20.1088413 C70.4864242,20.6286256 70.3027398,21.1537574 70.0359795,21.6206006 C69.642717,22.3082987 69.1693455,23.0018791 68.5152566,23.4278134 C67.9464017,23.7986677 67.2170589,24.0040145 66.4753086,23.8492023" id="Fill-13" fill="#462733"></path>
                <path d="M65.8251507,23.8592302 C65.1602417,23.9414529 64.4905146,23.911605 63.8437446,23.6922505 C63.036841,23.4188317 62.205563,22.7832951 61.6886006,22.1581771 C60.6257665,20.9439839 59.4387934,18.6561082 58.8271678,15.542063 C58.5967454,14.2929533 58.2067562,11.2704232 58.2651412,11.0124916 C58.3793604,10.5064839 58.3787936,10.5326713 58.9314673,10.4037055 C60.3910927,10.0632696 68.6418027,9.003948 68.8342465,8.9726921 C69.1349577,8.92397795 69.2681662,9.05970177 69.3152143,9.34607341 C69.4895191,10.406803 69.7400645,11.4514822 69.8911287,12.5192513 C70.0521126,13.6588246 70.1555618,14.7843186 70.2088452,15.9633138 C70.2281179,17.6942149 69.9804067,19.3372616 69.2015619,20.9085042 C68.7597064,21.798875 68.2651343,22.6194128 67.4205355,23.2011668 C66.9293644,23.5396316 66.4773057,23.7187194 65.8251507,23.8592302" id="Fill-15" fill="#FDE0A0"></path>
                <path d="M63.4874005,33.622485 C63.4865526,32.9046487 63.4789211,32.8780206 62.9382166,32.8780206 C59.6838142,32.8785812 51.6783913,32.8628847 51.5161517,32.8642861 C51.0071037,32.8690512 50.6916692,32.9587457 50.523494,33.4534669 C50.3770826,33.8851218 33.0431643,67.9836106 32.9292574,68.2039227 C32.8063058,68.4421737 32.8552038,68.604745 33.0965847,68.7482562 C34.0247988,69.301279 36.1050838,70.3750904 37.0663677,70.8650467 C37.4179811,71.0444357 37.5658057,70.8742964 37.7108038,70.5982055 C38.2232436,69.623058 44.3631935,56.3213623 44.4527927,56.1517836 C46.191357,52.858874 47.9259642,49.5640022 49.6656591,46.2713729 C49.7894586,46.0373263 49.8304425,45.7281605 50.1619879,45.6550034 C50.5147319,45.7503038 50.7388713,45.9187613 50.7312398,46.3408861 C50.7199339,46.9740733 50.3372293,110.617373 50.3982812,110.778262 C50.347122,111.30774 50.6297694,111.30774 51.253007,111.266537 C53.0367948,111.319793 62.9594152,111.266256 63.1273077,111.265976 C63.2372576,111.282514 63.3118765,111.248318 63.3277047,111.128912 C63.4495258,110.738741 63.4913576,37.2918313 63.4874005,33.622485" id="Fill-17" fill="#D6FFF9"></path>
                <polygon id="Fill-19" fill="#462733" points="50.0432099 76.1932389 61.9938272 73.1975309 61.945459 73.8387075 50.0477356 76.9320988"></polygon>
                <path d="M10.0640946,88.8622376 C10.6875122,89.3216361 11.182208,89.846743 11.5369643,90.4957169 C12.5013967,92.2600535 12.2131046,94.3498556 10.8050165,95.8242371 C9.63361954,97.0508844 8.19187867,97.668542 6.54457544,97.8144982 C4.88633506,97.9610137 3.34924466,97.5966824 1.98097901,96.6049071 C1.10067856,95.966838 0.432390578,95.1308053 0.160644437,94.0400482 C-0.336014402,92.0472706 0.346576007,90.4562919 1.82645669,89.172045 C2.72049869,88.396408 3.80523973,88.0471756 4.90175925,87.7158382 C9.59716237,86.2976583 14.2892002,84.8671756 18.9848838,83.4506733 C19.2810282,83.3611982 19.4265764,83.213844 19.4725686,82.8948094 C19.5477264,82.3727783 19.6890681,81.8605335 19.7580562,81.3382227 C19.8054506,80.9772467 19.9748362,80.8508632 20.3071573,80.7840365 C23.0411647,80.2348833 51.8322336,73.4303039 56.0657524,72.5895179 C57.9713406,72.2109265 60.0673475,72.6401272 61.806635,73.4663736 C61.8843168,73.5032821 62.0040646,73.5337595 61.9931274,73.6369354 C61.9799468,73.763319 61.8405682,73.7538123 61.750547,73.781214 C59.6032197,74.4391354 20.9552536,85.5167087 16.9045815,86.7506258 C14.681255,87.4278403 12.4573676,88.1022587 10.2340411,88.7789139 C10.192536,88.7917759 10.1543962,88.8175 10.0640946,88.8622376" id="Fill-21" fill="#E4844A"></path>
                <path d="M63.4876543,8.96296296 L66.4753086,23.9012346" id="Stroke-23" stroke="#91214E" stroke-width="3"></path>
                <path d="M109.049383,38.0925926 L108.302469,40.3333333" id="Stroke-25" stroke="#E4844A" stroke-linecap="round"></path>
                <path d="M106.808642,42.5740741 L79.9197531,106.808642" id="Stroke-27" stroke="#E4844A" stroke-linecap="round" stroke-dasharray="11.67,11.67"></path>
                <path d="M79.1728395,109.049383 L78.4259259,111.290123" id="Stroke-29" stroke="#E4844A" stroke-linecap="round"></path>
            </g>
        </g>
    </g>
</svg>