<?xml version="1.0"?>
<svg xmlns="http://www.w3.org/2000/svg" xmlns:xlink="http://www.w3.org/1999/xlink" version="1.1" id="Capa_1" x="0px" y="0px" width="512px" height="512px" viewBox="0 0 792.014 792.015" style="enable-background:new 0 0 792.014 792.015;" xml:space="preserve"><g><g>
	<path d="M580.131,0H211.898c-19.585,0-35.532,15.933-35.546,35.561v720.937c0.015,19.556,15.961,35.475,35.546,35.518h368.262   c19.6-0.043,35.502-15.976,35.502-35.547V35.561C615.663,15.933,599.745,0,580.131,0z M435.2,705.766   c-0.043,21.612-17.658,39.228-39.127,39.242c-21.598-0.029-39.184-17.63-39.199-39.127c0.029-21.599,17.543-39.142,39.113-39.185   C417.584,666.754,435.157,684.297,435.2,705.766z M576.047,634.025H215.997V75.723h360.021L576.047,634.025z" data-original="#000000" class="active-path" data-old_color="#000000" fill="#FFE0D6"/>
</g></g> </svg>
