<?xml version="1.0" encoding="UTF-8"?>
<svg width="163px" height="122px" viewBox="0 0 163 122" version="1.1" xmlns="http://www.w3.org/2000/svg" xmlns:xlink="http://www.w3.org/1999/xlink">
    <!-- Generator: Sketch 49 (51002) - http://www.bohemiancoding.com/sketch -->
    <title>Logo</title>
    <desc>Created with Sketch.</desc>
    <defs></defs>
    <g id="Page-1" stroke="none" stroke-width="1" fill="none" fill-rule="evenodd">
        <g id="Portfolio" transform="translate(-259.000000, -1032.000000)">
            <g id="Twin-Peaks-Card" transform="translate(207.000000, 953.000000)">
                <g id="Logo" transform="translate(53.000000, 79.000000)">
                    <polygon id="Triangle" stroke="#26211B" stroke-width="0.2" fill="#FFFFFF" points="100.5 0 161 121 40 121"></polygon>
                    <polygon id="Triangle" stroke="#26211B" stroke-width="0.2" fill="#415773" points="124.056657 47 161 121 40 121 83.480602 47"></polygon>
                    <polygon id="Triangle" stroke="#26211B" stroke-width="0.2" fill="#1C1914" points="60.5 0 121 121 0 121"></polygon>
                    <path d="M23.3682822,89.2309435 C26.9011961,89.2309435 29.4356397,90.6319869 30.9716892,93.4341157 L30.9716892,90.4318498 L30.925608,89.785208 C30.894887,89.2617334 31.1099307,89 31.5707455,89 C32.0315604,89 32.2619643,89.2617334 32.2619643,89.785208 L32.1237206,97.2215894 L32.1698018,112.602428 C32.1698018,116.574677 32.195676,119.048344 32.5336069,119.602611 C32.6384862,119.774632 33.1959171,118.37114 33.800081,117.289232 C34.2035154,116.566781 34.9940647,114.748232 35.6354634,114.442277 C35.9953124,114.270624 35.9199901,114.431512 35.9953124,114.642004 C36.0706347,114.852497 35.2136333,116.263127 35.1903507,116.352345 C35.1568669,116.480655 34.6927053,117.190394 34.2710268,117.983042 C33.6601026,119.131425 33.0250422,120.478094 32.9714631,120.685451 C32.9478198,120.776954 32.9115915,120.914414 32.8103692,120.962584 C32.7055345,121.012472 32.4459308,121.012472 32.0315581,120.962584 L31.0638517,120.962584 C30.8073755,121.001708 30.6537713,121.001708 30.6030392,120.962584 C30.5402383,120.914153 30.6030392,120.79683 30.6030392,120.685451 C30.6030392,120.285147 30.6030392,120.463134 30.7182423,119.215012 C30.8334455,117.966889 30.9716892,116.14358 30.9716892,112.510051 L30.9716892,109.045898 C29.9886175,110.493151 28.9210792,111.516991 27.769042,112.117447 C26.6170049,112.717903 25.1193791,113.018126 23.2761197,113.018126 C20.0504158,113.018126 17.5313324,112.001985 15.718794,109.969672 C13.9062556,107.937359 13,105.10448 13,101.47095 C13,97.7450428 13.9369761,94.7735992 15.8109565,92.5565303 C17.6849369,90.3394614 20.2040203,89.2309435 23.3682822,89.2309435 Z M29.3588453,109.461596 C30.0961491,108.44544 30.5492769,107.490883 30.7182423,106.597896 C30.8872078,105.70491 30.9716892,103.872777 30.9716892,101.101441 L30.9716892,97.5449104 C30.9409682,96.1900349 30.6030424,94.9275563 29.9579016,93.7574366 C28.6368991,91.3556119 26.4403812,90.1547176 23.3682822,90.1547176 C20.6033932,90.1547176 18.3991952,91.186255 16.7556222,93.2493608 C15.1120493,95.3124666 14.2902751,98.0683651 14.2902751,101.517139 C14.2902751,104.842742 15.0659685,107.436982 16.6173785,109.299936 C18.1687885,111.162889 20.3422659,112.094352 23.137876,112.094352 C25.994928,112.094352 28.0685637,111.216776 29.3588453,109.461596 Z" id="q" fill="#FFFFFF"></path>
                </g>
            </g>
        </g>
    </g>
</svg>